<svg id="gh-dark-mode-only" width="360" height="210" xmlns="http://www.w3.org/2000/svg">
<style>
svg {
  font-family: -apple-system, BlinkMacSystemFont, Segoe UI, Helvetica, Arial, sans-serif, Apple Color Emoji, Segoe UI Emoji;
  font-size: 14px;
  line-height: 21px;
}

#background {
  width: calc(100% - 10px);
  height: calc(100% - 10px);
  fill: white;
  stroke: rgb(225, 228, 232);
  stroke-width: 1px;
  rx: 6px;
  ry: 6px;
}

#gh-dark-mode-only:target #background {
  fill: #0d1117;
  stroke-width: 0.5px;
}

foreignObject {
  width: calc(100% - 10px - 32px);
  height: calc(100% - 10px - 24px);
}

h2 {
  margin-top: 0;
  margin-bottom: 0.75em;
  line-height: 24px;
  font-size: 16px;
  font-weight: 600;
  color: rgb(36, 41, 46);
  fill: rgb(36, 41, 46);
}

#gh-dark-mode-only:target h2 {
  color: #c9d1d9;
  fill: #c9d1d9;
}

ul {
  list-style: none;
  padding-left: 0;
  margin-top: 0;
  margin-bottom: 0;
}

li {
  display: inline-flex;
  font-size: 12px;
  margin-right: 1ch;
  align-items: center;
  flex-wrap: nowrap;
  transform: translateX(-500%);
  animation: slideIn 2s ease-in-out forwards;
}

@keyframes slideIn {
  to {
    transform: translateX(0);
  }
}

div.ellipsis {
  height: 176px;
  overflow: hidden;
  text-overflow: ellipsis;
}

.octicon {
  fill: rgb(88, 96, 105);
  margin-right: 0.5ch;
  vertical-align: top;
}

#gh-dark-mode-only:target .octicon {
  color: #8b949e;
  fill: #8b949e;
}

.progress {
  display: flex;
  height: 8px;
  overflow: hidden;
  background-color: rgb(225, 228, 232);
  border-radius: 6px;
  outline: 1px solid transparent;
  margin-bottom: 1em;
}

#gh-dark-mode-only:target .progress {
  background-color: rgba(110, 118, 129, 0.4);
}

.progress-item {
  outline: 2px solid rgb(225, 228, 232);
  border-collapse: collapse;
}

#gh-dark-mode-only:target .progress-item {
  outline: 2px solid #393f47;
}

.lang {
  font-weight: 600;
  margin-right: 4px;
  color: rgb(36, 41, 46);
}

#gh-dark-mode-only:target .lang {
  color: #c9d1d9;
}

.percent {
  color: rgb(88, 96, 105)
}

#gh-dark-mode-only:target .percent {
  color: #8b949e;
}
</style>
<g>
<rect x="5" y="5" id="background" />
<g>
<foreignObject x="21" y="17" width="318" height="176">
<div xmlns="http://www.w3.org/1999/xhtml" class="ellipsis">

<h2>Languages Used (By File Size)</h2>

<div>
<span class="progress">
<span style="
  background-color: #f34b7d; 
  width: 31.748%;
" class="progress-item"></span><span style="
  background-color: #3178c6; 
  width: 18.935%;
" class="progress-item"></span><span style="
  background-color: #555555; 
  width: 16.534%;
" class="progress-item"></span><span style="
  background-color: #178600; 
  width: 12.139%;
" class="progress-item"></span><span style="
  background-color: #3572A5; 
  width: 5.923%;
" class="progress-item"></span><span style="
  background-color: #A97BFF; 
  width: 4.916%;
" class="progress-item"></span><span style="
  background-color: #b07219; 
  width: 2.747%;
" class="progress-item"></span><span style="
  background-color: #427819; 
  width: 1.601%;
" class="progress-item"></span><span style="
  background-color: #c22d40; 
  width: 0.960%;
" class="progress-item"></span><span style="
  background-color: #ec915c; 
  width: 0.555%;
" class="progress-item"></span><span style="
  background-color: #222c37; 
  width: 0.498%;
" class="progress-item"></span><span style="
  background-color: #3D6117; 
  width: 0.382%;
" class="progress-item"></span><span style="
  background-color: #5686a5; 
  width: 0.344%;
" class="progress-item"></span><span style="
  background-color: #f1e05a; 
  width: 0.333%;
" class="progress-item"></span><span style="
  background-color: #000080; 
  width: 0.305%;
" class="progress-item"></span><span style="
  background-color: #89e051; 
  width: 0.264%;
" class="progress-item"></span><span style="
  background-color: #fcb32c; 
  width: 0.224%;
" class="progress-item"></span><span style="
  background-color: #DA3434; 
  width: 0.171%;
" class="progress-item"></span><span style="
  background-color: #438eff; 
  width: 0.167%;
" class="progress-item"></span><span style="
  background-color: #e16737; 
  width: 0.163%;
" class="progress-item"></span><span style="
  background-color: #F05138; 
  width: 0.102%;
" class="progress-item"></span><span style="
  background-color: #e34c26; 
  width: 0.099%;
" class="progress-item"></span><span style="
  background-color: #1C3552; 
  width: 0.097%;
" class="progress-item"></span><span style="
  background-color: #012456; 
  width: 0.088%;
" class="progress-item"></span><span style="
  background-color: #663399; 
  width: 0.068%;
" class="progress-item"></span><span style="
  background-color: #00B4AB; 
  width: 0.067%;
" class="progress-item"></span><span style="
  background-color: #4F5D95; 
  width: 0.057%;
" class="progress-item"></span><span style="
  background-color: #fedf5b; 
  width: 0.054%;
" class="progress-item"></span><span style="
  background-color: #C1F12E; 
  width: 0.045%;
" class="progress-item"></span><span style="
  background-color: #dea584; 
  width: 0.040%;
" class="progress-item"></span><span style="
  background-color: #e38c00; 
  width: 0.034%;
" class="progress-item"></span><span style="
  background-color: #264b99; 
  width: 0.033%;
" class="progress-item"></span><span style="
  background-color: #844FBA; 
  width: 0.030%;
" class="progress-item"></span><span style="
  background-color: #198CE7; 
  width: 0.030%;
" class="progress-item"></span><span style="
  background-color: #384d54; 
  width: 0.025%;
" class="progress-item"></span><span style="
  background-color: #a270ba; 
  width: 0.023%;
" class="progress-item"></span><span style="
  background-color: #00ADD8; 
  width: 0.022%;
" class="progress-item"></span><span style="
  background-color: #6594b9; 
  width: 0.013%;
" class="progress-item"></span><span style="
  background-color: #000; 
  width: 0.012%;
" class="progress-item"></span><span style="
  background-color: #adb2cb; 
  width: 0.011%;
" class="progress-item"></span><span style="
  background-color: #336790; 
  width: 0.009%;
" class="progress-item"></span><span style="
  background-color: #a52a22; 
  width: 0.009%;
" class="progress-item"></span><span style="
  background-color: #ff0000; 
  width: 0.008%;
" class="progress-item"></span><span style="
  background-color: #ecdebe; 
  width: 0.008%;
" class="progress-item"></span><span style="
  background-color: #239dad; 
  width: 0.006%;
" class="progress-item"></span><span style="
  background-color: #701516; 
  width: 0.006%;
" class="progress-item"></span><span style="
  background-color: #185619; 
  width: 0.006%;
" class="progress-item"></span><span style="
  background-color: #76d275; 
  width: 0.006%;
" class="progress-item"></span><span style="
  background-color: #141AC9; 
  width: 0.005%;
" class="progress-item"></span><span style="
  background-color: #6866fb; 
  width: 0.005%;
" class="progress-item"></span><span style="
  background-color: #DAE1C2; 
  width: 0.005%;
" class="progress-item"></span><span style="
  background-color: #4d41b1; 
  width: 0.005%;
" class="progress-item"></span><span style="
  background-color: #4298b8; 
  width: 0.005%;
" class="progress-item"></span><span style="
  background-color: #000; 
  width: 0.005%;
" class="progress-item"></span><span style="
  background-color: #945db7; 
  width: 0.005%;
" class="progress-item"></span><span style="
  background-color: #B34936; 
  width: 0.005%;
" class="progress-item"></span><span style="
  background-color: #b2b7f8; 
  width: 0.004%;
" class="progress-item"></span><span style="
  background-color: #2F2530; 
  width: 0.004%;
" class="progress-item"></span><span style="
  background-color: #7e7eff; 
  width: 0.004%;
" class="progress-item"></span><span style="
  background-color: #15dcdc; 
  width: 0.004%;
" class="progress-item"></span><span style="
  background-color: #c30e9b; 
  width: 0.003%;
" class="progress-item"></span><span style="
  background-color: #000; 
  width: 0.003%;
" class="progress-item"></span><span style="
  background-color: #c6538c; 
  width: 0.002%;
" class="progress-item"></span><span style="
  background-color: #358a5b; 
  width: 0.002%;
" class="progress-item"></span><span style="
  background-color: #00868B; 
  width: 0.002%;
" class="progress-item"></span><span style="
  background-color: #0000fb; 
  width: 0.002%;
" class="progress-item"></span><span style="
  background-color: #f0a9f0; 
  width: 0.002%;
" class="progress-item"></span><span style="
  background-color: #ba595e; 
  width: 0.002%;
" class="progress-item"></span><span style="
  background-color: #199f4b; 
  width: 0.002%;
" class="progress-item"></span><span style="
  background-color: #882B0F; 
  width: 0.001%;
" class="progress-item"></span><span style="
  background-color: #1d365d; 
  width: 0.001%;
" class="progress-item"></span><span style="
  background-color: #df7900; 
  width: 0.001%;
" class="progress-item"></span><span style="
  background-color: #b845fc; 
  width: 0.001%;
" class="progress-item"></span><span style="
  background-color: #f50000; 
  width: 0.001%;
" class="progress-item"></span><span style="
  background-color: #ffc200; 
  width: 0.001%;
" class="progress-item"></span><span style="
  background-color: #007800; 
  width: 0.001%;
" class="progress-item"></span><span style="
  background-color: #00ADD8; 
  width: 0.001%;
" class="progress-item"></span><span style="
  background-color: #5e5086; 
  width: 0.001%;
" class="progress-item"></span><span style="
  background-color: #244776; 
  width: 0.000%;
" class="progress-item"></span><span style="
  background-color: #000; 
  width: 0.000%;
" class="progress-item"></span><span style="
  background-color: #ef7a08; 
  width: 0.000%;
" class="progress-item"></span><span style="
  background-color: #B83998; 
  width: 0.000%;
" class="progress-item"></span><span style="
  background-color: #6e4a7e; 
  width: 0.000%;
" class="progress-item"></span><span style="
  background-color: #6E4C13; 
  width: 0.000%;
" class="progress-item"></span><span style="
  background-color: #dd1100; 
  width: 0.000%;
" class="progress-item"></span><span style="
  background-color: #7e858d; 
  width: 0.000%;
" class="progress-item"></span><span style="
  background-color: #5EC8DB; 
  width: 0.000%;
" class="progress-item"></span><span style="
  background-color: #384d54; 
  width: 0.000%;
" class="progress-item"></span><span style="
  background-color: #1a5f91; 
  width: 0.000%;
" class="progress-item"></span><span style="
  background-color: #FEFE00; 
  width: 0.000%;
" class="progress-item"></span>
</span>
</div>

<ul>

<li>
  <svg 
      xmlns="http://www.w3.org/2000/svg" 
      class="octicon"
      style="fill: #f34b7d;" 
      viewBox="0 0 16 16" 
      version="1.1" 
      width="16" 
      height="16"
  ><path 
      fill-rule="evenodd" 
      d="M8 4a4 4 0 100 8 4 4 0 000-8z"
  ></path></svg>
  <span class="lang">C++</span>
  <span class="percent">31.75%</span>
</li>
<li>
  <svg 
      xmlns="http://www.w3.org/2000/svg" 
      class="octicon"
      style="fill: #3178c6;" 
      viewBox="0 0 16 16" 
      version="1.1" 
      width="16" 
      height="16"
  ><path 
      fill-rule="evenodd" 
      d="M8 4a4 4 0 100 8 4 4 0 000-8z"
  ></path></svg>
  <span class="lang">TypeScript</span>
  <span class="percent">18.94%</span>
</li>
<li>
  <svg 
      xmlns="http://www.w3.org/2000/svg" 
      class="octicon"
      style="fill: #555555;" 
      viewBox="0 0 16 16" 
      version="1.1" 
      width="16" 
      height="16"
  ><path 
      fill-rule="evenodd" 
      d="M8 4a4 4 0 100 8 4 4 0 000-8z"
  ></path></svg>
  <span class="lang">C</span>
  <span class="percent">16.53%</span>
</li>
<li>
  <svg 
      xmlns="http://www.w3.org/2000/svg" 
      class="octicon"
      style="fill: #178600;" 
      viewBox="0 0 16 16" 
      version="1.1" 
      width="16" 
      height="16"
  ><path 
      fill-rule="evenodd" 
      d="M8 4a4 4 0 100 8 4 4 0 000-8z"
  ></path></svg>
  <span class="lang">C#</span>
  <span class="percent">12.14%</span>
</li>
<li>
  <svg 
      xmlns="http://www.w3.org/2000/svg" 
      class="octicon"
      style="fill: #3572A5;" 
      viewBox="0 0 16 16" 
      version="1.1" 
      width="16" 
      height="16"
  ><path 
      fill-rule="evenodd" 
      d="M8 4a4 4 0 100 8 4 4 0 000-8z"
  ></path></svg>
  <span class="lang">Python</span>
  <span class="percent">5.92%</span>
</li>
<li>
  <svg 
      xmlns="http://www.w3.org/2000/svg" 
      class="octicon"
      style="fill: #A97BFF;" 
      viewBox="0 0 16 16" 
      version="1.1" 
      width="16" 
      height="16"
  ><path 
      fill-rule="evenodd" 
      d="M8 4a4 4 0 100 8 4 4 0 000-8z"
  ></path></svg>
  <span class="lang">Kotlin</span>
  <span class="percent">4.92%</span>
</li>
<li>
  <svg 
      xmlns="http://www.w3.org/2000/svg" 
      class="octicon"
      style="fill: #b07219;" 
      viewBox="0 0 16 16" 
      version="1.1" 
      width="16" 
      height="16"
  ><path 
      fill-rule="evenodd" 
      d="M8 4a4 4 0 100 8 4 4 0 000-8z"
  ></path></svg>
  <span class="lang">Java</span>
  <span class="percent">2.75%</span>
</li>
<li>
  <svg 
      xmlns="http://www.w3.org/2000/svg" 
      class="octicon"
      style="fill: #427819;" 
      viewBox="0 0 16 16" 
      version="1.1" 
      width="16" 
      height="16"
  ><path 
      fill-rule="evenodd" 
      d="M8 4a4 4 0 100 8 4 4 0 000-8z"
  ></path></svg>
  <span class="lang">Makefile</span>
  <span class="percent">1.60%</span>
</li>
<li>
  <svg 
      xmlns="http://www.w3.org/2000/svg" 
      class="octicon"
      style="fill: #c22d40;" 
      viewBox="0 0 16 16" 
      version="1.1" 
      width="16" 
      height="16"
  ><path 
      fill-rule="evenodd" 
      d="M8 4a4 4 0 100 8 4 4 0 000-8z"
  ></path></svg>
  <span class="lang">Scala</span>
  <span class="percent">0.96%</span>
</li>
<li>
  <svg 
      xmlns="http://www.w3.org/2000/svg" 
      class="octicon"
      style="fill: #ec915c;" 
      viewBox="0 0 16 16" 
      version="1.1" 
      width="16" 
      height="16"
  ><path 
      fill-rule="evenodd" 
      d="M8 4a4 4 0 100 8 4 4 0 000-8z"
  ></path></svg>
  <span class="lang">Zig</span>
  <span class="percent">0.56%</span>
</li>
<li>
  <svg 
      xmlns="http://www.w3.org/2000/svg" 
      class="octicon"
      style="fill: #222c37;" 
      viewBox="0 0 16 16" 
      version="1.1" 
      width="16" 
      height="16"
  ><path 
      fill-rule="evenodd" 
      d="M8 4a4 4 0 100 8 4 4 0 000-8z"
  ></path></svg>
  <span class="lang">ShaderLab</span>
  <span class="percent">0.50%</span>
</li>
<li>
  <svg 
      xmlns="http://www.w3.org/2000/svg" 
      class="octicon"
      style="fill: #3D6117;" 
      viewBox="0 0 16 16" 
      version="1.1" 
      width="16" 
      height="16"
  ><path 
      fill-rule="evenodd" 
      d="M8 4a4 4 0 100 8 4 4 0 000-8z"
  ></path></svg>
  <span class="lang">TeX</span>
  <span class="percent">0.38%</span>
</li>
<li>
  <svg 
      xmlns="http://www.w3.org/2000/svg" 
      class="octicon"
      style="fill: #5686a5;" 
      viewBox="0 0 16 16" 
      version="1.1" 
      width="16" 
      height="16"
  ><path 
      fill-rule="evenodd" 
      d="M8 4a4 4 0 100 8 4 4 0 000-8z"
  ></path></svg>
  <span class="lang">GLSL</span>
  <span class="percent">0.34%</span>
</li>
<li>
  <svg 
      xmlns="http://www.w3.org/2000/svg" 
      class="octicon"
      style="fill: #f1e05a;" 
      viewBox="0 0 16 16" 
      version="1.1" 
      width="16" 
      height="16"
  ><path 
      fill-rule="evenodd" 
      d="M8 4a4 4 0 100 8 4 4 0 000-8z"
  ></path></svg>
  <span class="lang">JavaScript</span>
  <span class="percent">0.33%</span>
</li>
<li>
  <svg 
      xmlns="http://www.w3.org/2000/svg" 
      class="octicon"
      style="fill: #000080;" 
      viewBox="0 0 16 16" 
      version="1.1" 
      width="16" 
      height="16"
  ><path 
      fill-rule="evenodd" 
      d="M8 4a4 4 0 100 8 4 4 0 000-8z"
  ></path></svg>
  <span class="lang">Lua</span>
  <span class="percent">0.30%</span>
</li>
<li>
  <svg 
      xmlns="http://www.w3.org/2000/svg" 
      class="octicon"
      style="fill: #89e051;" 
      viewBox="0 0 16 16" 
      version="1.1" 
      width="16" 
      height="16"
  ><path 
      fill-rule="evenodd" 
      d="M8 4a4 4 0 100 8 4 4 0 000-8z"
  ></path></svg>
  <span class="lang">Shell</span>
  <span class="percent">0.26%</span>
</li>
<li>
  <svg 
      xmlns="http://www.w3.org/2000/svg" 
      class="octicon"
      style="fill: #fcb32c;" 
      viewBox="0 0 16 16" 
      version="1.1" 
      width="16" 
      height="16"
  ><path 
      fill-rule="evenodd" 
      d="M8 4a4 4 0 100 8 4 4 0 000-8z"
  ></path></svg>
  <span class="lang">MDX</span>
  <span class="percent">0.22%</span>
</li>
<li>
  <svg 
      xmlns="http://www.w3.org/2000/svg" 
      class="octicon"
      style="fill: #DA3434;" 
      viewBox="0 0 16 16" 
      version="1.1" 
      width="16" 
      height="16"
  ><path 
      fill-rule="evenodd" 
      d="M8 4a4 4 0 100 8 4 4 0 000-8z"
  ></path></svg>
  <span class="lang">CMake</span>
  <span class="percent">0.17%</span>
</li>
<li>
  <svg 
      xmlns="http://www.w3.org/2000/svg" 
      class="octicon"
      style="fill: #438eff;" 
      viewBox="0 0 16 16" 
      version="1.1" 
      width="16" 
      height="16"
  ><path 
      fill-rule="evenodd" 
      d="M8 4a4 4 0 100 8 4 4 0 000-8z"
  ></path></svg>
  <span class="lang">Objective-C</span>
  <span class="percent">0.17%</span>
</li>
<li>
  <svg 
      xmlns="http://www.w3.org/2000/svg" 
      class="octicon"
      style="fill: #e16737;" 
      viewBox="0 0 16 16" 
      version="1.1" 
      width="16" 
      height="16"
  ><path 
      fill-rule="evenodd" 
      d="M8 4a4 4 0 100 8 4 4 0 000-8z"
  ></path></svg>
  <span class="lang">MATLAB</span>
  <span class="percent">0.16%</span>
</li>
<li>
  <svg 
      xmlns="http://www.w3.org/2000/svg" 
      class="octicon"
      style="fill: #F05138;" 
      viewBox="0 0 16 16" 
      version="1.1" 
      width="16" 
      height="16"
  ><path 
      fill-rule="evenodd" 
      d="M8 4a4 4 0 100 8 4 4 0 000-8z"
  ></path></svg>
  <span class="lang">Swift</span>
  <span class="percent">0.10%</span>
</li>
<li>
  <svg 
      xmlns="http://www.w3.org/2000/svg" 
      class="octicon"
      style="fill: #e34c26;" 
      viewBox="0 0 16 16" 
      version="1.1" 
      width="16" 
      height="16"
  ><path 
      fill-rule="evenodd" 
      d="M8 4a4 4 0 100 8 4 4 0 000-8z"
  ></path></svg>
  <span class="lang">HTML</span>
  <span class="percent">0.10%</span>
</li>
<li>
  <svg 
      xmlns="http://www.w3.org/2000/svg" 
      class="octicon"
      style="fill: #1C3552;" 
      viewBox="0 0 16 16" 
      version="1.1" 
      width="16" 
      height="16"
  ><path 
      fill-rule="evenodd" 
      d="M8 4a4 4 0 100 8 4 4 0 000-8z"
  ></path></svg>
  <span class="lang">AutoIt</span>
  <span class="percent">0.10%</span>
</li>
<li>
  <svg 
      xmlns="http://www.w3.org/2000/svg" 
      class="octicon"
      style="fill: #012456;" 
      viewBox="0 0 16 16" 
      version="1.1" 
      width="16" 
      height="16"
  ><path 
      fill-rule="evenodd" 
      d="M8 4a4 4 0 100 8 4 4 0 000-8z"
  ></path></svg>
  <span class="lang">PowerShell</span>
  <span class="percent">0.09%</span>
</li>
<li>
  <svg 
      xmlns="http://www.w3.org/2000/svg" 
      class="octicon"
      style="fill: #663399;" 
      viewBox="0 0 16 16" 
      version="1.1" 
      width="16" 
      height="16"
  ><path 
      fill-rule="evenodd" 
      d="M8 4a4 4 0 100 8 4 4 0 000-8z"
  ></path></svg>
  <span class="lang">CSS</span>
  <span class="percent">0.07%</span>
</li>
<li>
  <svg 
      xmlns="http://www.w3.org/2000/svg" 
      class="octicon"
      style="fill: #00B4AB;" 
      viewBox="0 0 16 16" 
      version="1.1" 
      width="16" 
      height="16"
  ><path 
      fill-rule="evenodd" 
      d="M8 4a4 4 0 100 8 4 4 0 000-8z"
  ></path></svg>
  <span class="lang">Dart</span>
  <span class="percent">0.07%</span>
</li>
<li>
  <svg 
      xmlns="http://www.w3.org/2000/svg" 
      class="octicon"
      style="fill: #4F5D95;" 
      viewBox="0 0 16 16" 
      version="1.1" 
      width="16" 
      height="16"
  ><path 
      fill-rule="evenodd" 
      d="M8 4a4 4 0 100 8 4 4 0 000-8z"
  ></path></svg>
  <span class="lang">PHP</span>
  <span class="percent">0.06%</span>
</li>
<li>
  <svg 
      xmlns="http://www.w3.org/2000/svg" 
      class="octicon"
      style="fill: #fedf5b;" 
      viewBox="0 0 16 16" 
      version="1.1" 
      width="16" 
      height="16"
  ><path 
      fill-rule="evenodd" 
      d="M8 4a4 4 0 100 8 4 4 0 000-8z"
  ></path></svg>
  <span class="lang">Cython</span>
  <span class="percent">0.05%</span>
</li>
<li>
  <svg 
      xmlns="http://www.w3.org/2000/svg" 
      class="octicon"
      style="fill: #C1F12E;" 
      viewBox="0 0 16 16" 
      version="1.1" 
      width="16" 
      height="16"
  ><path 
      fill-rule="evenodd" 
      d="M8 4a4 4 0 100 8 4 4 0 000-8z"
  ></path></svg>
  <span class="lang">Batchfile</span>
  <span class="percent">0.05%</span>
</li>
<li>
  <svg 
      xmlns="http://www.w3.org/2000/svg" 
      class="octicon"
      style="fill: #dea584;" 
      viewBox="0 0 16 16" 
      version="1.1" 
      width="16" 
      height="16"
  ><path 
      fill-rule="evenodd" 
      d="M8 4a4 4 0 100 8 4 4 0 000-8z"
  ></path></svg>
  <span class="lang">Rust</span>
  <span class="percent">0.04%</span>
</li>
<li>
  <svg 
      xmlns="http://www.w3.org/2000/svg" 
      class="octicon"
      style="fill: #e38c00;" 
      viewBox="0 0 16 16" 
      version="1.1" 
      width="16" 
      height="16"
  ><path 
      fill-rule="evenodd" 
      d="M8 4a4 4 0 100 8 4 4 0 000-8z"
  ></path></svg>
  <span class="lang">TSQL</span>
  <span class="percent">0.03%</span>
</li>
<li>
  <svg 
      xmlns="http://www.w3.org/2000/svg" 
      class="octicon"
      style="fill: #264b99;" 
      viewBox="0 0 16 16" 
      version="1.1" 
      width="16" 
      height="16"
  ><path 
      fill-rule="evenodd" 
      d="M8 4a4 4 0 100 8 4 4 0 000-8z"
  ></path></svg>
  <span class="lang">Inno Setup</span>
  <span class="percent">0.03%</span>
</li>
<li>
  <svg 
      xmlns="http://www.w3.org/2000/svg" 
      class="octicon"
      style="fill: #844FBA;" 
      viewBox="0 0 16 16" 
      version="1.1" 
      width="16" 
      height="16"
  ><path 
      fill-rule="evenodd" 
      d="M8 4a4 4 0 100 8 4 4 0 000-8z"
  ></path></svg>
  <span class="lang">HCL</span>
  <span class="percent">0.03%</span>
</li>
<li>
  <svg 
      xmlns="http://www.w3.org/2000/svg" 
      class="octicon"
      style="fill: #198CE7;" 
      viewBox="0 0 16 16" 
      version="1.1" 
      width="16" 
      height="16"
  ><path 
      fill-rule="evenodd" 
      d="M8 4a4 4 0 100 8 4 4 0 000-8z"
  ></path></svg>
  <span class="lang">R</span>
  <span class="percent">0.03%</span>
</li>
<li>
  <svg 
      xmlns="http://www.w3.org/2000/svg" 
      class="octicon"
      style="fill: #384d54;" 
      viewBox="0 0 16 16" 
      version="1.1" 
      width="16" 
      height="16"
  ><path 
      fill-rule="evenodd" 
      d="M8 4a4 4 0 100 8 4 4 0 000-8z"
  ></path></svg>
  <span class="lang">Dockerfile</span>
  <span class="percent">0.03%</span>
</li>
<li>
  <svg 
      xmlns="http://www.w3.org/2000/svg" 
      class="octicon"
      style="fill: #a270ba;" 
      viewBox="0 0 16 16" 
      version="1.1" 
      width="16" 
      height="16"
  ><path 
      fill-rule="evenodd" 
      d="M8 4a4 4 0 100 8 4 4 0 000-8z"
  ></path></svg>
  <span class="lang">Julia</span>
  <span class="percent">0.02%</span>
</li>
<li>
  <svg 
      xmlns="http://www.w3.org/2000/svg" 
      class="octicon"
      style="fill: #00ADD8;" 
      viewBox="0 0 16 16" 
      version="1.1" 
      width="16" 
      height="16"
  ><path 
      fill-rule="evenodd" 
      d="M8 4a4 4 0 100 8 4 4 0 000-8z"
  ></path></svg>
  <span class="lang">Go</span>
  <span class="percent">0.02%</span>
</li>
<li>
  <svg 
      xmlns="http://www.w3.org/2000/svg" 
      class="octicon"
      style="fill: #6594b9;" 
      viewBox="0 0 16 16" 
      version="1.1" 
      width="16" 
      height="16"
  ><path 
      fill-rule="evenodd" 
      d="M8 4a4 4 0 100 8 4 4 0 000-8z"
  ></path></svg>
  <span class="lang">AutoHotkey</span>
  <span class="percent">0.01%</span>
</li>
<li>
  <svg 
      xmlns="http://www.w3.org/2000/svg" 
      class="octicon"
      style="fill: #000;" 
      viewBox="0 0 16 16" 
      version="1.1" 
      width="16" 
      height="16"
  ><path 
      fill-rule="evenodd" 
      d="M8 4a4 4 0 100 8 4 4 0 000-8z"
  ></path></svg>
  <span class="lang">M4</span>
  <span class="percent">0.01%</span>
</li>
<li>
  <svg 
      xmlns="http://www.w3.org/2000/svg" 
      class="octicon"
      style="fill: #adb2cb;" 
      viewBox="0 0 16 16" 
      version="1.1" 
      width="16" 
      height="16"
  ><path 
      fill-rule="evenodd" 
      d="M8 4a4 4 0 100 8 4 4 0 000-8z"
  ></path></svg>
  <span class="lang">VHDL</span>
  <span class="percent">0.01%</span>
</li>
<li>
  <svg 
      xmlns="http://www.w3.org/2000/svg" 
      class="octicon"
      style="fill: #336790;" 
      viewBox="0 0 16 16" 
      version="1.1" 
      width="16" 
      height="16"
  ><path 
      fill-rule="evenodd" 
      d="M8 4a4 4 0 100 8 4 4 0 000-8z"
  ></path></svg>
  <span class="lang">PLpgSQL</span>
  <span class="percent">0.01%</span>
</li>
<li>
  <svg 
      xmlns="http://www.w3.org/2000/svg" 
      class="octicon"
      style="fill: #a52a22;" 
      viewBox="0 0 16 16" 
      version="1.1" 
      width="16" 
      height="16"
  ><path 
      fill-rule="evenodd" 
      d="M8 4a4 4 0 100 8 4 4 0 000-8z"
  ></path></svg>
  <span class="lang">Jinja</span>
  <span class="percent">0.01%</span>
</li>
<li>
  <svg 
      xmlns="http://www.w3.org/2000/svg" 
      class="octicon"
      style="fill: #ff0000;" 
      viewBox="0 0 16 16" 
      version="1.1" 
      width="16" 
      height="16"
  ><path 
      fill-rule="evenodd" 
      d="M8 4a4 4 0 100 8 4 4 0 000-8z"
  ></path></svg>
  <span class="lang">Asymptote</span>
  <span class="percent">0.01%</span>
</li>
<li>
  <svg 
      xmlns="http://www.w3.org/2000/svg" 
      class="octicon"
      style="fill: #ecdebe;" 
      viewBox="0 0 16 16" 
      version="1.1" 
      width="16" 
      height="16"
  ><path 
      fill-rule="evenodd" 
      d="M8 4a4 4 0 100 8 4 4 0 000-8z"
  ></path></svg>
  <span class="lang">Roff</span>
  <span class="percent">0.01%</span>
</li>
<li>
  <svg 
      xmlns="http://www.w3.org/2000/svg" 
      class="octicon"
      style="fill: #239dad;" 
      viewBox="0 0 16 16" 
      version="1.1" 
      width="16" 
      height="16"
  ><path 
      fill-rule="evenodd" 
      d="M8 4a4 4 0 100 8 4 4 0 000-8z"
  ></path></svg>
  <span class="lang">Typst</span>
  <span class="percent">0.01%</span>
</li>
<li>
  <svg 
      xmlns="http://www.w3.org/2000/svg" 
      class="octicon"
      style="fill: #701516;" 
      viewBox="0 0 16 16" 
      version="1.1" 
      width="16" 
      height="16"
  ><path 
      fill-rule="evenodd" 
      d="M8 4a4 4 0 100 8 4 4 0 000-8z"
  ></path></svg>
  <span class="lang">Ruby</span>
  <span class="percent">0.01%</span>
</li>
<li>
  <svg 
      xmlns="http://www.w3.org/2000/svg" 
      class="octicon"
      style="fill: #185619;" 
      viewBox="0 0 16 16" 
      version="1.1" 
      width="16" 
      height="16"
  ><path 
      fill-rule="evenodd" 
      d="M8 4a4 4 0 100 8 4 4 0 000-8z"
  ></path></svg>
  <span class="lang">LLVM</span>
  <span class="percent">0.01%</span>
</li>
<li>
  <svg 
      xmlns="http://www.w3.org/2000/svg" 
      class="octicon"
      style="fill: #76d275;" 
      viewBox="0 0 16 16" 
      version="1.1" 
      width="16" 
      height="16"
  ><path 
      fill-rule="evenodd" 
      d="M8 4a4 4 0 100 8 4 4 0 000-8z"
  ></path></svg>
  <span class="lang">Starlark</span>
  <span class="percent">0.01%</span>
</li>
<li>
  <svg 
      xmlns="http://www.w3.org/2000/svg" 
      class="octicon"
      style="fill: #141AC9;" 
      viewBox="0 0 16 16" 
      version="1.1" 
      width="16" 
      height="16"
  ><path 
      fill-rule="evenodd" 
      d="M8 4a4 4 0 100 8 4 4 0 000-8z"
  ></path></svg>
  <span class="lang">FreeBASIC</span>
  <span class="percent">0.01%</span>
</li>
<li>
  <svg 
      xmlns="http://www.w3.org/2000/svg" 
      class="octicon"
      style="fill: #6866fb;" 
      viewBox="0 0 16 16" 
      version="1.1" 
      width="16" 
      height="16"
  ><path 
      fill-rule="evenodd" 
      d="M8 4a4 4 0 100 8 4 4 0 000-8z"
  ></path></svg>
  <span class="lang">Objective-C++</span>
  <span class="percent">0.01%</span>
</li>
<li>
  <svg 
      xmlns="http://www.w3.org/2000/svg" 
      class="octicon"
      style="fill: #DAE1C2;" 
      viewBox="0 0 16 16" 
      version="1.1" 
      width="16" 
      height="16"
  ><path 
      fill-rule="evenodd" 
      d="M8 4a4 4 0 100 8 4 4 0 000-8z"
  ></path></svg>
  <span class="lang">SystemVerilog</span>
  <span class="percent">0.00%</span>
</li>
<li>
  <svg 
      xmlns="http://www.w3.org/2000/svg" 
      class="octicon"
      style="fill: #4d41b1;" 
      viewBox="0 0 16 16" 
      version="1.1" 
      width="16" 
      height="16"
  ><path 
      fill-rule="evenodd" 
      d="M8 4a4 4 0 100 8 4 4 0 000-8z"
  ></path></svg>
  <span class="lang">Fortran</span>
  <span class="percent">0.00%</span>
</li>
<li>
  <svg 
      xmlns="http://www.w3.org/2000/svg" 
      class="octicon"
      style="fill: #4298b8;" 
      viewBox="0 0 16 16" 
      version="1.1" 
      width="16" 
      height="16"
  ><path 
      fill-rule="evenodd" 
      d="M8 4a4 4 0 100 8 4 4 0 000-8z"
  ></path></svg>
  <span class="lang">Groovy</span>
  <span class="percent">0.00%</span>
</li>
<li>
  <svg 
      xmlns="http://www.w3.org/2000/svg" 
      class="octicon"
      style="fill: #000;" 
      viewBox="0 0 16 16" 
      version="1.1" 
      width="16" 
      height="16"
  ><path 
      fill-rule="evenodd" 
      d="M8 4a4 4 0 100 8 4 4 0 000-8z"
  ></path></svg>
  <span class="lang">QMake</span>
  <span class="percent">0.00%</span>
</li>
<li>
  <svg 
      xmlns="http://www.w3.org/2000/svg" 
      class="octicon"
      style="fill: #945db7;" 
      viewBox="0 0 16 16" 
      version="1.1" 
      width="16" 
      height="16"
  ><path 
      fill-rule="evenodd" 
      d="M8 4a4 4 0 100 8 4 4 0 000-8z"
  ></path></svg>
  <span class="lang">Visual Basic .NET</span>
  <span class="percent">0.00%</span>
</li>
<li>
  <svg 
      xmlns="http://www.w3.org/2000/svg" 
      class="octicon"
      style="fill: #B34936;" 
      viewBox="0 0 16 16" 
      version="1.1" 
      width="16" 
      height="16"
  ><path 
      fill-rule="evenodd" 
      d="M8 4a4 4 0 100 8 4 4 0 000-8z"
  ></path></svg>
  <span class="lang">SAS</span>
  <span class="percent">0.00%</span>
</li>
<li>
  <svg 
      xmlns="http://www.w3.org/2000/svg" 
      class="octicon"
      style="fill: #b2b7f8;" 
      viewBox="0 0 16 16" 
      version="1.1" 
      width="16" 
      height="16"
  ><path 
      fill-rule="evenodd" 
      d="M8 4a4 4 0 100 8 4 4 0 000-8z"
  ></path></svg>
  <span class="lang">Verilog</span>
  <span class="percent">0.00%</span>
</li>
<li>
  <svg 
      xmlns="http://www.w3.org/2000/svg" 
      class="octicon"
      style="fill: #2F2530;" 
      viewBox="0 0 16 16" 
      version="1.1" 
      width="16" 
      height="16"
  ><path 
      fill-rule="evenodd" 
      d="M8 4a4 4 0 100 8 4 4 0 000-8z"
  ></path></svg>
  <span class="lang">Brainfuck</span>
  <span class="percent">0.00%</span>
</li>
<li>
  <svg 
      xmlns="http://www.w3.org/2000/svg" 
      class="octicon"
      style="fill: #7e7eff;" 
      viewBox="0 0 16 16" 
      version="1.1" 
      width="16" 
      height="16"
  ><path 
      fill-rule="evenodd" 
      d="M8 4a4 4 0 100 8 4 4 0 000-8z"
  ></path></svg>
  <span class="lang">Nix</span>
  <span class="percent">0.00%</span>
</li>
<li>
  <svg 
      xmlns="http://www.w3.org/2000/svg" 
      class="octicon"
      style="fill: #15dcdc;" 
      viewBox="0 0 16 16" 
      version="1.1" 
      width="16" 
      height="16"
  ><path 
      fill-rule="evenodd" 
      d="M8 4a4 4 0 100 8 4 4 0 000-8z"
  ></path></svg>
  <span class="lang">VBScript</span>
  <span class="percent">0.00%</span>
</li>
<li>
  <svg 
      xmlns="http://www.w3.org/2000/svg" 
      class="octicon"
      style="fill: #c30e9b;" 
      viewBox="0 0 16 16" 
      version="1.1" 
      width="16" 
      height="16"
  ><path 
      fill-rule="evenodd" 
      d="M8 4a4 4 0 100 8 4 4 0 000-8z"
  ></path></svg>
  <span class="lang">Awk</span>
  <span class="percent">0.00%</span>
</li>
<li>
  <svg 
      xmlns="http://www.w3.org/2000/svg" 
      class="octicon"
      style="fill: #000;" 
      viewBox="0 0 16 16" 
      version="1.1" 
      width="16" 
      height="16"
  ><path 
      fill-rule="evenodd" 
      d="M8 4a4 4 0 100 8 4 4 0 000-8z"
  ></path></svg>
  <span class="lang">NSIS</span>
  <span class="percent">0.00%</span>
</li>
<li>
  <svg 
      xmlns="http://www.w3.org/2000/svg" 
      class="octicon"
      style="fill: #c6538c;" 
      viewBox="0 0 16 16" 
      version="1.1" 
      width="16" 
      height="16"
  ><path 
      fill-rule="evenodd" 
      d="M8 4a4 4 0 100 8 4 4 0 000-8z"
  ></path></svg>
  <span class="lang">SCSS</span>
  <span class="percent">0.00%</span>
</li>
<li>
  <svg 
      xmlns="http://www.w3.org/2000/svg" 
      class="octicon"
      style="fill: #358a5b;" 
      viewBox="0 0 16 16" 
      version="1.1" 
      width="16" 
      height="16"
  ><path 
      fill-rule="evenodd" 
      d="M8 4a4 4 0 100 8 4 4 0 000-8z"
  ></path></svg>
  <span class="lang">Rebol</span>
  <span class="percent">0.00%</span>
</li>
<li>
  <svg 
      xmlns="http://www.w3.org/2000/svg" 
      class="octicon"
      style="fill: #00868B;" 
      viewBox="0 0 16 16" 
      version="1.1" 
      width="16" 
      height="16"
  ><path 
      fill-rule="evenodd" 
      d="M8 4a4 4 0 100 8 4 4 0 000-8z"
  ></path></svg>
  <span class="lang">Cangjie</span>
  <span class="percent">0.00%</span>
</li>
<li>
  <svg 
      xmlns="http://www.w3.org/2000/svg" 
      class="octicon"
      style="fill: #0000fb;" 
      viewBox="0 0 16 16" 
      version="1.1" 
      width="16" 
      height="16"
  ><path 
      fill-rule="evenodd" 
      d="M8 4a4 4 0 100 8 4 4 0 000-8z"
  ></path></svg>
  <span class="lang">Raku</span>
  <span class="percent">0.00%</span>
</li>
<li>
  <svg 
      xmlns="http://www.w3.org/2000/svg" 
      class="octicon"
      style="fill: #f0a9f0;" 
      viewBox="0 0 16 16" 
      version="1.1" 
      width="16" 
      height="16"
  ><path 
      fill-rule="evenodd" 
      d="M8 4a4 4 0 100 8 4 4 0 000-8z"
  ></path></svg>
  <span class="lang">Gnuplot</span>
  <span class="percent">0.00%</span>
</li>
<li>
  <svg 
      xmlns="http://www.w3.org/2000/svg" 
      class="octicon"
      style="fill: #ba595e;" 
      viewBox="0 0 16 16" 
      version="1.1" 
      width="16" 
      height="16"
  ><path 
      fill-rule="evenodd" 
      d="M8 4a4 4 0 100 8 4 4 0 000-8z"
  ></path></svg>
  <span class="lang">D</span>
  <span class="percent">0.00%</span>
</li>
<li>
  <svg 
      xmlns="http://www.w3.org/2000/svg" 
      class="octicon"
      style="fill: #199f4b;" 
      viewBox="0 0 16 16" 
      version="1.1" 
      width="16" 
      height="16"
  ><path 
      fill-rule="evenodd" 
      d="M8 4a4 4 0 100 8 4 4 0 000-8z"
  ></path></svg>
  <span class="lang">Vim Script</span>
  <span class="percent">0.00%</span>
</li>
<li>
  <svg 
      xmlns="http://www.w3.org/2000/svg" 
      class="octicon"
      style="fill: #882B0F;" 
      viewBox="0 0 16 16" 
      version="1.1" 
      width="16" 
      height="16"
  ><path 
      fill-rule="evenodd" 
      d="M8 4a4 4 0 100 8 4 4 0 000-8z"
  ></path></svg>
  <span class="lang">ActionScript</span>
  <span class="percent">0.00%</span>
</li>
<li>
  <svg 
      xmlns="http://www.w3.org/2000/svg" 
      class="octicon"
      style="fill: #1d365d;" 
      viewBox="0 0 16 16" 
      version="1.1" 
      width="16" 
      height="16"
  ><path 
      fill-rule="evenodd" 
      d="M8 4a4 4 0 100 8 4 4 0 000-8z"
  ></path></svg>
  <span class="lang">Less</span>
  <span class="percent">0.00%</span>
</li>
<li>
  <svg 
      xmlns="http://www.w3.org/2000/svg" 
      class="octicon"
      style="fill: #df7900;" 
      viewBox="0 0 16 16" 
      version="1.1" 
      width="16" 
      height="16"
  ><path 
      fill-rule="evenodd" 
      d="M8 4a4 4 0 100 8 4 4 0 000-8z"
  ></path></svg>
  <span class="lang">Haxe</span>
  <span class="percent">0.00%</span>
</li>
<li>
  <svg 
      xmlns="http://www.w3.org/2000/svg" 
      class="octicon"
      style="fill: #b845fc;" 
      viewBox="0 0 16 16" 
      version="1.1" 
      width="16" 
      height="16"
  ><path 
      fill-rule="evenodd" 
      d="M8 4a4 4 0 100 8 4 4 0 000-8z"
  ></path></svg>
  <span class="lang">F#</span>
  <span class="percent">0.00%</span>
</li>
<li>
  <svg 
      xmlns="http://www.w3.org/2000/svg" 
      class="octicon"
      style="fill: #f50000;" 
      viewBox="0 0 16 16" 
      version="1.1" 
      width="16" 
      height="16"
  ><path 
      fill-rule="evenodd" 
      d="M8 4a4 4 0 100 8 4 4 0 000-8z"
  ></path></svg>
  <span class="lang">Red</span>
  <span class="percent">0.00%</span>
</li>
<li>
  <svg 
      xmlns="http://www.w3.org/2000/svg" 
      class="octicon"
      style="fill: #ffc200;" 
      viewBox="0 0 16 16" 
      version="1.1" 
      width="16" 
      height="16"
  ><path 
      fill-rule="evenodd" 
      d="M8 4a4 4 0 100 8 4 4 0 000-8z"
  ></path></svg>
  <span class="lang">Nim</span>
  <span class="percent">0.00%</span>
</li>
<li>
  <svg 
      xmlns="http://www.w3.org/2000/svg" 
      class="octicon"
      style="fill: #007800;" 
      viewBox="0 0 16 16" 
      version="1.1" 
      width="16" 
      height="16"
  ><path 
      fill-rule="evenodd" 
      d="M8 4a4 4 0 100 8 4 4 0 000-8z"
  ></path></svg>
  <span class="lang">Meson</span>
  <span class="percent">0.00%</span>
</li>
<li>
  <svg 
      xmlns="http://www.w3.org/2000/svg" 
      class="octicon"
      style="fill: #00ADD8;" 
      viewBox="0 0 16 16" 
      version="1.1" 
      width="16" 
      height="16"
  ><path 
      fill-rule="evenodd" 
      d="M8 4a4 4 0 100 8 4 4 0 000-8z"
  ></path></svg>
  <span class="lang">Go Template</span>
  <span class="percent">0.00%</span>
</li>
<li>
  <svg 
      xmlns="http://www.w3.org/2000/svg" 
      class="octicon"
      style="fill: #5e5086;" 
      viewBox="0 0 16 16" 
      version="1.1" 
      width="16" 
      height="16"
  ><path 
      fill-rule="evenodd" 
      d="M8 4a4 4 0 100 8 4 4 0 000-8z"
  ></path></svg>
  <span class="lang">Haskell</span>
  <span class="percent">0.00%</span>
</li>
<li>
  <svg 
      xmlns="http://www.w3.org/2000/svg" 
      class="octicon"
      style="fill: #244776;" 
      viewBox="0 0 16 16" 
      version="1.1" 
      width="16" 
      height="16"
  ><path 
      fill-rule="evenodd" 
      d="M8 4a4 4 0 100 8 4 4 0 000-8z"
  ></path></svg>
  <span class="lang">CoffeeScript</span>
  <span class="percent">0.00%</span>
</li>
<li>
  <svg 
      xmlns="http://www.w3.org/2000/svg" 
      class="octicon"
      style="fill: #000;" 
      viewBox="0 0 16 16" 
      version="1.1" 
      width="16" 
      height="16"
  ><path 
      fill-rule="evenodd" 
      d="M8 4a4 4 0 100 8 4 4 0 000-8z"
  ></path></svg>
  <span class="lang">Limbo</span>
  <span class="percent">0.00%</span>
</li>
<li>
  <svg 
      xmlns="http://www.w3.org/2000/svg" 
      class="octicon"
      style="fill: #ef7a08;" 
      viewBox="0 0 16 16" 
      version="1.1" 
      width="16" 
      height="16"
  ><path 
      fill-rule="evenodd" 
      d="M8 4a4 4 0 100 8 4 4 0 000-8z"
  ></path></svg>
  <span class="lang">OCaml</span>
  <span class="percent">0.00%</span>
</li>
<li>
  <svg 
      xmlns="http://www.w3.org/2000/svg" 
      class="octicon"
      style="fill: #B83998;" 
      viewBox="0 0 16 16" 
      version="1.1" 
      width="16" 
      height="16"
  ><path 
      fill-rule="evenodd" 
      d="M8 4a4 4 0 100 8 4 4 0 000-8z"
  ></path></svg>
  <span class="lang">Erlang</span>
  <span class="percent">0.00%</span>
</li>
<li>
  <svg 
      xmlns="http://www.w3.org/2000/svg" 
      class="octicon"
      style="fill: #6e4a7e;" 
      viewBox="0 0 16 16" 
      version="1.1" 
      width="16" 
      height="16"
  ><path 
      fill-rule="evenodd" 
      d="M8 4a4 4 0 100 8 4 4 0 000-8z"
  ></path></svg>
  <span class="lang">Elixir</span>
  <span class="percent">0.00%</span>
</li>
<li>
  <svg 
      xmlns="http://www.w3.org/2000/svg" 
      class="octicon"
      style="fill: #6E4C13;" 
      viewBox="0 0 16 16" 
      version="1.1" 
      width="16" 
      height="16"
  ><path 
      fill-rule="evenodd" 
      d="M8 4a4 4 0 100 8 4 4 0 000-8z"
  ></path></svg>
  <span class="lang">Assembly</span>
  <span class="percent">0.00%</span>
</li>
<li>
  <svg 
      xmlns="http://www.w3.org/2000/svg" 
      class="octicon"
      style="fill: #dd1100;" 
      viewBox="0 0 16 16" 
      version="1.1" 
      width="16" 
      height="16"
  ><path 
      fill-rule="evenodd" 
      d="M8 4a4 4 0 100 8 4 4 0 000-8z"
  ></path></svg>
  <span class="lang">Wolfram Language</span>
  <span class="percent">0.00%</span>
</li>
<li>
  <svg 
      xmlns="http://www.w3.org/2000/svg" 
      class="octicon"
      style="fill: #7e858d;" 
      viewBox="0 0 16 16" 
      version="1.1" 
      width="16" 
      height="16"
  ><path 
      fill-rule="evenodd" 
      d="M8 4a4 4 0 100 8 4 4 0 000-8z"
  ></path></svg>
  <span class="lang">Mako</span>
  <span class="percent">0.00%</span>
</li>
<li>
  <svg 
      xmlns="http://www.w3.org/2000/svg" 
      class="octicon"
      style="fill: #5EC8DB;" 
      viewBox="0 0 16 16" 
      version="1.1" 
      width="16" 
      height="16"
  ><path 
      fill-rule="evenodd" 
      d="M8 4a4 4 0 100 8 4 4 0 000-8z"
  ></path></svg>
  <span class="lang">MLIR</span>
  <span class="percent">0.00%</span>
</li>
<li>
  <svg 
      xmlns="http://www.w3.org/2000/svg" 
      class="octicon"
      style="fill: #384d54;" 
      viewBox="0 0 16 16" 
      version="1.1" 
      width="16" 
      height="16"
  ><path 
      fill-rule="evenodd" 
      d="M8 4a4 4 0 100 8 4 4 0 000-8z"
  ></path></svg>
  <span class="lang">Just</span>
  <span class="percent">0.00%</span>
</li>
<li>
  <svg 
      xmlns="http://www.w3.org/2000/svg" 
      class="octicon"
      style="fill: #1a5f91;" 
      viewBox="0 0 16 16" 
      version="1.1" 
      width="16" 
      height="16"
  ><path 
      fill-rule="evenodd" 
      d="M8 4a4 4 0 100 8 4 4 0 000-8z"
  ></path></svg>
  <span class="lang">Stata</span>
  <span class="percent">0.00%</span>
</li>
<li>
  <svg 
      xmlns="http://www.w3.org/2000/svg" 
      class="octicon"
      style="fill: #FEFE00;" 
      viewBox="0 0 16 16" 
      version="1.1" 
      width="16" 
      height="16"
  ><path 
      fill-rule="evenodd" 
      d="M8 4a4 4 0 100 8 4 4 0 000-8z"
  ></path></svg>
  <span class="lang">Isabelle</span>
  <span class="percent">0.00%</span>
</li>


</ul>

</div>
</foreignObject>
</g>
</g>
</svg>
